<svg xmlns="http://www.w3.org/2000/svg" viewBox="0 0 190 72" role="img" aria-labelledby="title">
<title id="title">Apple Pay</title>
<rect x="1" y="1" width="188" height="70" rx="14" fill="#fff" stroke="#dedede"/>
<path d="M48 25c3-4 8-7 12-7 .5 5-1.5 9-4 12-3 3-7 5-11 5-.5-4 1-8 3-10Zm17 28c-3 4-6 8-11 8-4 0-5-3-10-3s-7 3-11 3c-5 0-8-4-11-8-6-9-7-20-3-26 3-5 8-8 13-8 4 0 8 3 10 3 2 0 7-4 12-3 2 0 8 1 12 7-1 1-7 4-7 12 0 9 8 12 9 12-1 4-2 8-3 13Z" fill="#111"/>
<text x="79" y="48" font-family="Arial,sans-serif" font-size="31" font-weight="700" fill="#111">Pay</text>
</svg>