<svg xmlns="http://www.w3.org/2000/svg" viewBox="0 0 220 72" role="img" aria-labelledby="title">
<title id="title">綠界 ECPay</title>
<rect x="1" y="1" width="218" height="70" rx="14" fill="#fff" stroke="#dce7e4"/>
<rect x="12" y="12" width="48" height="48" rx="13" fill="#16a085"/>
<path d="M25 29h22a5 5 0 0 1 5 5v12a5 5 0 0 1-5 5H25a5 5 0 0 1-5-5V34a5 5 0 0 1 5-5Z" fill="none" stroke="#fff" stroke-width="4"/>
<path d="M24 29v-4a5 5 0 0 1 5-5h14" fill="none" stroke="#fff" stroke-width="4" stroke-linecap="round"/>
<circle cx="44" cy="40" r="3" fill="#fff"/>
<text x="72" y="33" font-family="Arial,'Noto Sans TC',sans-serif" font-size="20" font-weight="800" fill="#146b60">綠界</text>
<text x="72" y="53" font-family="Arial,sans-serif" font-size="18" font-weight="800" fill="#2f3f3d">ECPay</text>
</svg>